<svg xmlns="http://www.w3.org/2000/svg" width="1080" height="1080" viewBox="0 0 1080 1080" role="img" aria-labelledby="title">
<title id="title">Post SyraVisage</title><defs><radialGradient id="bg" cx="80%" cy="15%"><stop stop-color="#4c1d95"/><stop offset=".63" stop-color="#18082f"/><stop offset="1" stop-color="#0b0519"/></radialGradient><filter id="g"><feGaussianBlur stdDeviation="12"/></filter></defs>
<rect width="1080" height="1080" fill="url(#bg)"/><circle cx="861" cy="194" r="234" fill="#f97316" opacity=".16" filter="url(#g)"/><g fill="none" stroke="#e9d5ff" stroke-width="2" opacity=".68"><ellipse cx="540" cy="470" rx="188" ry="240"/><path d="M390 400Q540 470 690 400M370 520Q540 610 710 520M420 700Q540 640 660 700M454 400Q420 490 454 571M626 400Q660 490 626 571M465 475Q505 451 526 478M554 478Q575 451 615 475M480 600Q540 635 600 600"/></g><g fill="#fdba74"><circle cx="465" cy="475" r="7"/><circle cx="526" cy="478" r="7"/><circle cx="554" cy="478" r="7"/><circle cx="615" cy="475" r="7"/><circle cx="540" cy="541" r="8"/><circle cx="480" cy="600" r="7"/><circle cx="600" cy="600" r="7"/></g><g fill="#d8b4fe" opacity=".82"><circle cx="390" cy="400" r="5"/><circle cx="690" cy="400" r="5"/><circle cx="370" cy="520" r="5"/><circle cx="710" cy="520" r="5"/><circle cx="420" cy="700" r="5"/><circle cx="660" cy="700" r="5"/></g><text x="84" y="110" fill="#fdba74" font-family="Arial,Helvetica,sans-serif" font-size="26" font-weight="700" letter-spacing="5">OPENBYSYRA</text><text x="84" y="183" fill="#fff7ed" font-family="Arial,Helvetica,sans-serif" font-size="61" font-weight="700">SYRAVISAGE</text><text x="84" y="230" fill="#ddd6fe" font-family="Arial,Helvetica,sans-serif" font-size="28">JavaScript • Face coordinates</text><text x="84" y="806" fill="#fff7ed" font-family="Arial,Helvetica,sans-serif" font-size="66" font-weight="700">Seu rosto vira</text><text x="84" y="876" fill="#fdba74" font-family="Arial,Helvetica,sans-serif" font-size="66" font-weight="700">coordenada.</text><path d="M84 923H996" stroke="#a855f7"/><text x="84" y="969" fill="#ddd6fe" font-family="Arial,Helvetica,sans-serif" font-size="25">github.com/SyraDevOps</text><text x="996" y="969" text-anchor="end" fill="#fdba74" font-family="Arial,Helvetica,sans-serif" font-size="25" font-weight="700">@SyraDevOps</text></svg>
